<mxfile host="app.diagrams.net" modified="2020-09-23T08:17:22.725Z" agent="5.0 (Windows NT 10.0; Win64; x64) AppleWebKit/537.36 (KHTML, like Gecko) Chrome/84.0.4147.89 Safari/537.36" etag="84yLFXalUbJaBONQ-UVy" version="13.7.4" type="github" pages="2">
  <diagram name="Page-1" id="13e1069c-82ec-6db2-03f1-153e76fe0fe0">
    <mxGraphModel dx="1108" dy="593" grid="1" gridSize="10" guides="1" tooltips="1" connect="1" arrows="1" fold="1" page="1" pageScale="1" pageWidth="1100" pageHeight="850" background="#ffffff" math="0" shadow="0">
      <root>
        <mxCell id="0" />
        <mxCell id="1" parent="0" />
        <mxCell id="7baba1c4bc27f4b0-2" value="POS API" style="shape=umlLifeline;perimeter=lifelinePerimeter;whiteSpace=wrap;html=1;container=1;collapsible=0;recursiveResize=0;outlineConnect=0;rounded=1;shadow=0;comic=0;labelBackgroundColor=none;strokeWidth=1;fontFamily=Verdana;fontSize=12;align=center;" parent="1" vertex="1">
          <mxGeometry x="310" y="80" width="100" height="710" as="geometry" />
        </mxCell>
        <mxCell id="xtthrPI0aEPPbnFWW5zE-2" value="" style="html=1;points=[];perimeter=orthogonalPerimeter;" vertex="1" parent="7baba1c4bc27f4b0-2">
          <mxGeometry x="45" y="143" width="10" height="40" as="geometry" />
        </mxCell>
        <mxCell id="xtthrPI0aEPPbnFWW5zE-3" value="请求数据合法校验" style="edgeStyle=orthogonalEdgeStyle;html=1;align=left;spacingLeft=2;endArrow=block;rounded=0;entryX=1;entryY=0;exitX=0.5;exitY=0.207;exitDx=0;exitDy=0;exitPerimeter=0;" edge="1" parent="7baba1c4bc27f4b0-2">
          <mxGeometry relative="1" as="geometry">
            <mxPoint x="50" y="121.05999999999995" as="sourcePoint" />
            <Array as="points">
              <mxPoint x="80" y="121" />
              <mxPoint x="80" y="141" />
            </Array>
            <mxPoint x="55" y="144" as="targetPoint" />
          </mxGeometry>
        </mxCell>
        <mxCell id="bmvPAsM33y8xg3jXlYjT-4" value="" style="html=1;points=[];perimeter=orthogonalPerimeter;" vertex="1" parent="7baba1c4bc27f4b0-2">
          <mxGeometry x="45" y="370" width="10" height="40" as="geometry" />
        </mxCell>
        <mxCell id="bmvPAsM33y8xg3jXlYjT-5" value="是否有送券活动" style="edgeStyle=orthogonalEdgeStyle;html=1;align=left;spacingLeft=2;endArrow=block;rounded=0;entryX=1;entryY=0;exitX=0.5;exitY=0.603;exitDx=0;exitDy=0;exitPerimeter=0;" edge="1" target="bmvPAsM33y8xg3jXlYjT-4" parent="7baba1c4bc27f4b0-2" source="7baba1c4bc27f4b0-2">
          <mxGeometry relative="1" as="geometry">
            <mxPoint x="55" y="350" as="sourcePoint" />
            <Array as="points">
              <mxPoint x="50" y="350" />
              <mxPoint x="90" y="350" />
              <mxPoint x="90" y="370" />
            </Array>
          </mxGeometry>
        </mxCell>
        <mxCell id="7baba1c4bc27f4b0-3" value="CRM" style="shape=umlLifeline;perimeter=lifelinePerimeter;whiteSpace=wrap;html=1;container=1;collapsible=0;recursiveResize=0;outlineConnect=0;rounded=1;shadow=0;comic=0;labelBackgroundColor=none;strokeWidth=1;fontFamily=Verdana;fontSize=12;align=center;" parent="1" vertex="1">
          <mxGeometry x="510" y="80" width="100" height="710" as="geometry" />
        </mxCell>
        <mxCell id="xtthrPI0aEPPbnFWW5zE-5" value="" style="html=1;points=[];perimeter=orthogonalPerimeter;" vertex="1" parent="7baba1c4bc27f4b0-3">
          <mxGeometry x="45" y="230" width="10" height="80" as="geometry" />
        </mxCell>
        <mxCell id="bmvPAsM33y8xg3jXlYjT-1" value="" style="html=1;points=[];perimeter=orthogonalPerimeter;" vertex="1" parent="7baba1c4bc27f4b0-3">
          <mxGeometry x="45" y="460" width="10" height="80" as="geometry" />
        </mxCell>
        <mxCell id="7baba1c4bc27f4b0-8" value="POS终端" style="shape=umlLifeline;perimeter=lifelinePerimeter;whiteSpace=wrap;html=1;container=1;collapsible=0;recursiveResize=0;outlineConnect=0;rounded=1;shadow=0;comic=0;labelBackgroundColor=none;strokeWidth=1;fontFamily=Verdana;fontSize=12;align=center;" parent="1" vertex="1">
          <mxGeometry x="100" y="80" width="100" height="710" as="geometry" />
        </mxCell>
        <mxCell id="7baba1c4bc27f4b0-9" value="" style="html=1;points=[];perimeter=orthogonalPerimeter;rounded=0;shadow=0;comic=0;labelBackgroundColor=none;strokeWidth=1;fontFamily=Verdana;fontSize=12;align=center;" parent="7baba1c4bc27f4b0-8" vertex="1">
          <mxGeometry x="45" y="100" width="10" height="560" as="geometry" />
        </mxCell>
        <mxCell id="7baba1c4bc27f4b0-11" value="收银请求" style="html=1;verticalAlign=bottom;endArrow=block;entryX=0.5;entryY=0.172;labelBackgroundColor=none;fontFamily=Verdana;fontSize=12;edgeStyle=elbowEdgeStyle;elbow=vertical;entryDx=0;entryDy=0;entryPerimeter=0;" parent="1" edge="1">
          <mxGeometry relative="1" as="geometry">
            <mxPoint x="155" y="181" as="sourcePoint" />
            <mxPoint x="360" y="181.12" as="targetPoint" />
          </mxGeometry>
        </mxCell>
        <mxCell id="xtthrPI0aEPPbnFWW5zE-6" value="同步交易数据" style="html=1;verticalAlign=bottom;endArrow=block;entryX=0;entryY=0;" edge="1" target="xtthrPI0aEPPbnFWW5zE-5" parent="1">
          <mxGeometry relative="1" as="geometry">
            <mxPoint x="360" y="310" as="sourcePoint" />
          </mxGeometry>
        </mxCell>
        <mxCell id="xtthrPI0aEPPbnFWW5zE-7" value="返回积分" style="html=1;verticalAlign=bottom;endArrow=open;dashed=1;endSize=8;exitX=0;exitY=0.95;" edge="1" source="xtthrPI0aEPPbnFWW5zE-5" parent="1">
          <mxGeometry relative="1" as="geometry">
            <mxPoint x="360" y="386" as="targetPoint" />
          </mxGeometry>
        </mxCell>
        <mxCell id="bmvPAsM33y8xg3jXlYjT-2" value="赠券" style="html=1;verticalAlign=bottom;endArrow=block;entryX=0;entryY=0;" edge="1" target="bmvPAsM33y8xg3jXlYjT-1" parent="1" source="7baba1c4bc27f4b0-2">
          <mxGeometry relative="1" as="geometry">
            <mxPoint x="380" y="540" as="sourcePoint" />
          </mxGeometry>
        </mxCell>
        <mxCell id="bmvPAsM33y8xg3jXlYjT-3" value="返回券码" style="html=1;verticalAlign=bottom;endArrow=open;dashed=1;endSize=8;exitX=0;exitY=0.95;" edge="1" source="bmvPAsM33y8xg3jXlYjT-1" parent="1" target="7baba1c4bc27f4b0-2">
          <mxGeometry relative="1" as="geometry">
            <mxPoint x="380" y="616" as="targetPoint" />
          </mxGeometry>
        </mxCell>
        <mxCell id="bmvPAsM33y8xg3jXlYjT-10" value="返回积分、赠券信息" style="html=1;verticalAlign=bottom;endArrow=open;dashed=1;endSize=8;" edge="1" parent="1">
          <mxGeometry x="0.0451" y="-11" relative="1" as="geometry">
            <mxPoint x="360" y="701" as="sourcePoint" />
            <mxPoint x="149.5" y="701" as="targetPoint" />
            <mxPoint as="offset" />
          </mxGeometry>
        </mxCell>
      </root>
    </mxGraphModel>
  </diagram>
  <diagram id="bzoYXfa8JmQOcLPhNUiR" name="Page-2">
    <mxGraphModel dx="1108" dy="459" grid="1" gridSize="10" guides="1" tooltips="1" connect="1" arrows="1" fold="1" page="1" pageScale="1" pageWidth="827" pageHeight="1169" math="0" shadow="0">
      <root>
        <mxCell id="_HavbocPRSY8FIcnlORy-0" />
        <mxCell id="_HavbocPRSY8FIcnlORy-1" parent="_HavbocPRSY8FIcnlORy-0" />
      </root>
    </mxGraphModel>
  </diagram>
</mxfile>
